<mxfile host="Electron" agent="Mozilla/5.0 (Windows NT 10.0; Win64; x64) AppleWebKit/537.36 (KHTML, like Gecko) draw.io/28.2.5 Chrome/138.0.7204.251 Electron/37.6.1 Safari/537.36" version="28.2.5">
  <diagram id="C5RBs43oDa-KdzZeNtuy" name="Page-1">
    <mxGraphModel dx="939" dy="1192" grid="1" gridSize="10" guides="1" tooltips="1" connect="1" arrows="1" fold="1" page="1" pageScale="1" pageWidth="827" pageHeight="1169" math="0" shadow="0">
      <root>
        <mxCell id="WIyWlLk6GJQsqaUBKTNV-0" />
        <mxCell id="WIyWlLk6GJQsqaUBKTNV-1" parent="WIyWlLk6GJQsqaUBKTNV-0" />
        <mxCell id="EHwVneV3d_ws8tAXUa8t-2" value="" style="edgeStyle=orthogonalEdgeStyle;rounded=0;orthogonalLoop=1;jettySize=auto;html=1;" edge="1" parent="WIyWlLk6GJQsqaUBKTNV-1" source="EHwVneV3d_ws8tAXUa8t-0" target="EHwVneV3d_ws8tAXUa8t-1">
          <mxGeometry relative="1" as="geometry" />
        </mxCell>
        <mxCell id="EHwVneV3d_ws8tAXUa8t-3" value="JAH" style="edgeLabel;html=1;align=center;verticalAlign=middle;resizable=0;points=[];" vertex="1" connectable="0" parent="EHwVneV3d_ws8tAXUa8t-2">
          <mxGeometry x="-0.1" relative="1" as="geometry">
            <mxPoint as="offset" />
          </mxGeometry>
        </mxCell>
        <mxCell id="EHwVneV3d_ws8tAXUa8t-4" style="edgeStyle=orthogonalEdgeStyle;rounded=0;orthogonalLoop=1;jettySize=auto;html=1;exitX=1;exitY=0.5;exitDx=0;exitDy=0;entryX=0.5;entryY=0;entryDx=0;entryDy=0;" edge="1" parent="WIyWlLk6GJQsqaUBKTNV-1" source="EHwVneV3d_ws8tAXUa8t-0" target="EHwVneV3d_ws8tAXUa8t-24">
          <mxGeometry relative="1" as="geometry">
            <mxPoint x="180" y="870" as="targetPoint" />
            <Array as="points">
              <mxPoint x="330" y="1025" />
              <mxPoint x="330" y="750" />
              <mxPoint x="180" y="750" />
            </Array>
          </mxGeometry>
        </mxCell>
        <mxCell id="EHwVneV3d_ws8tAXUa8t-0" value="Kas ruudu suurus on väiksem kui 0" style="rhombus;whiteSpace=wrap;html=1;" vertex="1" parent="WIyWlLk6GJQsqaUBKTNV-1">
          <mxGeometry x="100" y="985" width="160" height="80" as="geometry" />
        </mxCell>
        <mxCell id="EHwVneV3d_ws8tAXUa8t-6" style="edgeStyle=orthogonalEdgeStyle;rounded=0;orthogonalLoop=1;jettySize=auto;html=1;exitX=1;exitY=0.5;exitDx=0;exitDy=0;entryX=0.5;entryY=0;entryDx=0;entryDy=0;" edge="1" parent="WIyWlLk6GJQsqaUBKTNV-1" source="EHwVneV3d_ws8tAXUa8t-1" target="EHwVneV3d_ws8tAXUa8t-24">
          <mxGeometry relative="1" as="geometry">
            <mxPoint x="180" y="870" as="targetPoint" />
            <Array as="points">
              <mxPoint x="330" y="1185" />
              <mxPoint x="330" y="750" />
              <mxPoint x="180" y="750" />
            </Array>
          </mxGeometry>
        </mxCell>
        <mxCell id="EHwVneV3d_ws8tAXUa8t-29" value="EI" style="edgeLabel;html=1;align=center;verticalAlign=middle;resizable=0;points=[];" vertex="1" connectable="0" parent="EHwVneV3d_ws8tAXUa8t-6">
          <mxGeometry x="0.0783" y="1" relative="1" as="geometry">
            <mxPoint as="offset" />
          </mxGeometry>
        </mxCell>
        <mxCell id="EHwVneV3d_ws8tAXUa8t-37" value="" style="edgeStyle=orthogonalEdgeStyle;rounded=0;orthogonalLoop=1;jettySize=auto;html=1;" edge="1" parent="WIyWlLk6GJQsqaUBKTNV-1" source="EHwVneV3d_ws8tAXUa8t-1" target="EHwVneV3d_ws8tAXUa8t-36">
          <mxGeometry relative="1" as="geometry" />
        </mxCell>
        <mxCell id="EHwVneV3d_ws8tAXUa8t-1" value="Kas ruudu suurus on suurem kui 20?" style="rhombus;whiteSpace=wrap;html=1;" vertex="1" parent="WIyWlLk6GJQsqaUBKTNV-1">
          <mxGeometry x="100" y="1145" width="160" height="80" as="geometry" />
        </mxCell>
        <mxCell id="EHwVneV3d_ws8tAXUa8t-35" value="" style="edgeStyle=orthogonalEdgeStyle;rounded=0;orthogonalLoop=1;jettySize=auto;html=1;" edge="1" parent="WIyWlLk6GJQsqaUBKTNV-1" source="EHwVneV3d_ws8tAXUa8t-7" target="EHwVneV3d_ws8tAXUa8t-0">
          <mxGeometry relative="1" as="geometry" />
        </mxCell>
        <mxCell id="EHwVneV3d_ws8tAXUa8t-7" value="Muutujasse ruuduSuurus salvestub sisestatud suurus" style="shape=parallelogram;perimeter=parallelogramPerimeter;whiteSpace=wrap;html=1;fixedSize=1;" vertex="1" parent="WIyWlLk6GJQsqaUBKTNV-1">
          <mxGeometry x="100" y="890" width="160" height="65" as="geometry" />
        </mxCell>
        <mxCell id="EHwVneV3d_ws8tAXUa8t-16" value="" style="edgeStyle=orthogonalEdgeStyle;rounded=0;orthogonalLoop=1;jettySize=auto;html=1;" edge="1" parent="WIyWlLk6GJQsqaUBKTNV-1" source="EHwVneV3d_ws8tAXUa8t-9" target="EHwVneV3d_ws8tAXUa8t-14">
          <mxGeometry relative="1" as="geometry" />
        </mxCell>
        <mxCell id="EHwVneV3d_ws8tAXUa8t-9" value="Kuva kasutajale tekst &quot;Palun sisesta oma kasutajanimi&quot;" style="shape=parallelogram;perimeter=parallelogramPerimeter;whiteSpace=wrap;html=1;fixedSize=1;" vertex="1" parent="WIyWlLk6GJQsqaUBKTNV-1">
          <mxGeometry x="110" y="110" width="140" height="80" as="geometry" />
        </mxCell>
        <mxCell id="EHwVneV3d_ws8tAXUa8t-13" value="" style="edgeStyle=orthogonalEdgeStyle;rounded=0;orthogonalLoop=1;jettySize=auto;html=1;" edge="1" parent="WIyWlLk6GJQsqaUBKTNV-1" source="EHwVneV3d_ws8tAXUa8t-12" target="EHwVneV3d_ws8tAXUa8t-9">
          <mxGeometry relative="1" as="geometry" />
        </mxCell>
        <mxCell id="EHwVneV3d_ws8tAXUa8t-12" value="Algus" style="ellipse;whiteSpace=wrap;html=1;" vertex="1" parent="WIyWlLk6GJQsqaUBKTNV-1">
          <mxGeometry x="120" width="120" height="50" as="geometry" />
        </mxCell>
        <mxCell id="EHwVneV3d_ws8tAXUa8t-53" style="edgeStyle=orthogonalEdgeStyle;rounded=0;orthogonalLoop=1;jettySize=auto;html=1;entryX=0.5;entryY=0;entryDx=0;entryDy=0;" edge="1" parent="WIyWlLk6GJQsqaUBKTNV-1" source="EHwVneV3d_ws8tAXUa8t-14" target="EHwVneV3d_ws8tAXUa8t-9">
          <mxGeometry relative="1" as="geometry">
            <Array as="points">
              <mxPoint x="270" y="290" />
              <mxPoint x="270" y="90" />
              <mxPoint x="180" y="90" />
            </Array>
          </mxGeometry>
        </mxCell>
        <mxCell id="EHwVneV3d_ws8tAXUa8t-54" value="EI" style="edgeLabel;html=1;align=center;verticalAlign=middle;resizable=0;points=[];" vertex="1" connectable="0" parent="EHwVneV3d_ws8tAXUa8t-53">
          <mxGeometry x="-0.3157" y="-3" relative="1" as="geometry">
            <mxPoint as="offset" />
          </mxGeometry>
        </mxCell>
        <mxCell id="EHwVneV3d_ws8tAXUa8t-56" value="" style="edgeStyle=orthogonalEdgeStyle;rounded=0;orthogonalLoop=1;jettySize=auto;html=1;" edge="1" parent="WIyWlLk6GJQsqaUBKTNV-1" source="EHwVneV3d_ws8tAXUa8t-14" target="EHwVneV3d_ws8tAXUa8t-55">
          <mxGeometry relative="1" as="geometry" />
        </mxCell>
        <mxCell id="EHwVneV3d_ws8tAXUa8t-57" value="Jah" style="edgeLabel;html=1;align=center;verticalAlign=middle;resizable=0;points=[];" vertex="1" connectable="0" parent="EHwVneV3d_ws8tAXUa8t-56">
          <mxGeometry x="-0.075" y="-1" relative="1" as="geometry">
            <mxPoint as="offset" />
          </mxGeometry>
        </mxCell>
        <mxCell id="EHwVneV3d_ws8tAXUa8t-14" value="Kas kasutaja on sisestanud nime?" style="rhombus;whiteSpace=wrap;html=1;" vertex="1" parent="WIyWlLk6GJQsqaUBKTNV-1">
          <mxGeometry x="120" y="250" width="120" height="80" as="geometry" />
        </mxCell>
        <mxCell id="EHwVneV3d_ws8tAXUa8t-22" value="" style="edgeStyle=orthogonalEdgeStyle;rounded=0;orthogonalLoop=1;jettySize=auto;html=1;" edge="1" parent="WIyWlLk6GJQsqaUBKTNV-1" target="EHwVneV3d_ws8tAXUa8t-21">
          <mxGeometry relative="1" as="geometry">
            <mxPoint x="180" y="610" as="sourcePoint" />
          </mxGeometry>
        </mxCell>
        <mxCell id="EHwVneV3d_ws8tAXUa8t-23" value="EI" style="edgeLabel;html=1;align=center;verticalAlign=middle;resizable=0;points=[];" vertex="1" connectable="0" parent="EHwVneV3d_ws8tAXUa8t-22">
          <mxGeometry x="-0.25" y="-2" relative="1" as="geometry">
            <mxPoint as="offset" />
          </mxGeometry>
        </mxCell>
        <mxCell id="EHwVneV3d_ws8tAXUa8t-18" value="Kontrolli funktsiooniga if kas kasutajanimi on &quot;user1&quot;" style="shape=parallelogram;perimeter=parallelogramPerimeter;whiteSpace=wrap;html=1;fixedSize=1;" vertex="1" parent="WIyWlLk6GJQsqaUBKTNV-1">
          <mxGeometry x="90" y="555" width="180" height="60" as="geometry" />
        </mxCell>
        <mxCell id="EHwVneV3d_ws8tAXUa8t-25" value="" style="edgeStyle=orthogonalEdgeStyle;rounded=0;orthogonalLoop=1;jettySize=auto;html=1;" edge="1" parent="WIyWlLk6GJQsqaUBKTNV-1" source="EHwVneV3d_ws8tAXUa8t-21" target="EHwVneV3d_ws8tAXUa8t-24">
          <mxGeometry relative="1" as="geometry" />
        </mxCell>
        <mxCell id="EHwVneV3d_ws8tAXUa8t-26" value="JAH" style="edgeLabel;html=1;align=center;verticalAlign=middle;resizable=0;points=[];" vertex="1" connectable="0" parent="EHwVneV3d_ws8tAXUa8t-25">
          <mxGeometry y="3" relative="1" as="geometry">
            <mxPoint x="-3" y="-5" as="offset" />
          </mxGeometry>
        </mxCell>
        <mxCell id="EHwVneV3d_ws8tAXUa8t-21" value="korda while nii kaua kuni tingimus on täidetud." style="shape=parallelogram;perimeter=parallelogramPerimeter;whiteSpace=wrap;html=1;fixedSize=1;" vertex="1" parent="WIyWlLk6GJQsqaUBKTNV-1">
          <mxGeometry x="90" y="650" width="180" height="60" as="geometry" />
        </mxCell>
        <mxCell id="EHwVneV3d_ws8tAXUa8t-33" value="" style="edgeStyle=orthogonalEdgeStyle;rounded=0;orthogonalLoop=1;jettySize=auto;html=1;" edge="1" parent="WIyWlLk6GJQsqaUBKTNV-1" source="EHwVneV3d_ws8tAXUa8t-24" target="EHwVneV3d_ws8tAXUa8t-7">
          <mxGeometry relative="1" as="geometry" />
        </mxCell>
        <mxCell id="EHwVneV3d_ws8tAXUa8t-24" value="Kuva kasutajale tekst &quot;Kui suurt ruutu tahad?&quot;" style="shape=parallelogram;perimeter=parallelogramPerimeter;whiteSpace=wrap;html=1;fixedSize=1;" vertex="1" parent="WIyWlLk6GJQsqaUBKTNV-1">
          <mxGeometry x="110" y="770" width="140" height="80" as="geometry" />
        </mxCell>
        <mxCell id="EHwVneV3d_ws8tAXUa8t-39" value="" style="edgeStyle=orthogonalEdgeStyle;rounded=0;orthogonalLoop=1;jettySize=auto;html=1;" edge="1" parent="WIyWlLk6GJQsqaUBKTNV-1" source="EHwVneV3d_ws8tAXUa8t-36" target="EHwVneV3d_ws8tAXUa8t-38">
          <mxGeometry relative="1" as="geometry" />
        </mxCell>
        <mxCell id="EHwVneV3d_ws8tAXUa8t-36" value="instantseerides muutuja &quot;tsükliMuutuja&quot;&amp;nbsp; ja siis omistab muutujale &quot;ruuduSuurus&quot;" style="shape=parallelogram;perimeter=parallelogramPerimeter;whiteSpace=wrap;html=1;fixedSize=1;" vertex="1" parent="WIyWlLk6GJQsqaUBKTNV-1">
          <mxGeometry x="105" y="1270" width="150" height="60" as="geometry" />
        </mxCell>
        <mxCell id="EHwVneV3d_ws8tAXUa8t-41" value="" style="edgeStyle=orthogonalEdgeStyle;rounded=0;orthogonalLoop=1;jettySize=auto;html=1;" edge="1" parent="WIyWlLk6GJQsqaUBKTNV-1" source="EHwVneV3d_ws8tAXUa8t-38" target="EHwVneV3d_ws8tAXUa8t-40">
          <mxGeometry relative="1" as="geometry" />
        </mxCell>
        <mxCell id="EHwVneV3d_ws8tAXUa8t-38" value="muutuja üksRida liidab otsa muutujale&amp;nbsp;&lt;br&gt;&quot;_&quot;+reakujund" style="shape=parallelogram;perimeter=parallelogramPerimeter;whiteSpace=wrap;html=1;fixedSize=1;" vertex="1" parent="WIyWlLk6GJQsqaUBKTNV-1">
          <mxGeometry x="110" y="1410" width="140" height="60" as="geometry" />
        </mxCell>
        <mxCell id="EHwVneV3d_ws8tAXUa8t-43" value="" style="edgeStyle=orthogonalEdgeStyle;rounded=0;orthogonalLoop=1;jettySize=auto;html=1;" edge="1" parent="WIyWlLk6GJQsqaUBKTNV-1" source="EHwVneV3d_ws8tAXUa8t-40" target="EHwVneV3d_ws8tAXUa8t-42">
          <mxGeometry relative="1" as="geometry" />
        </mxCell>
        <mxCell id="EHwVneV3d_ws8tAXUa8t-40" value="Muutuja tsükliMuutuja lahutab -= 1" style="shape=parallelogram;perimeter=parallelogramPerimeter;whiteSpace=wrap;html=1;fixedSize=1;" vertex="1" parent="WIyWlLk6GJQsqaUBKTNV-1">
          <mxGeometry x="105" y="1510" width="150" height="60" as="geometry" />
        </mxCell>
        <mxCell id="EHwVneV3d_ws8tAXUa8t-45" value="" style="edgeStyle=orthogonalEdgeStyle;rounded=0;orthogonalLoop=1;jettySize=auto;html=1;" edge="1" parent="WIyWlLk6GJQsqaUBKTNV-1" source="EHwVneV3d_ws8tAXUa8t-42" target="EHwVneV3d_ws8tAXUa8t-44">
          <mxGeometry relative="1" as="geometry" />
        </mxCell>
        <mxCell id="EHwVneV3d_ws8tAXUa8t-42" value="korda while kui tsükliMuutuja ei võrdu (!=) 0" style="shape=parallelogram;perimeter=parallelogramPerimeter;whiteSpace=wrap;html=1;fixedSize=1;" vertex="1" parent="WIyWlLk6GJQsqaUBKTNV-1">
          <mxGeometry x="90" y="1620" width="180" height="60" as="geometry" />
        </mxCell>
        <mxCell id="EHwVneV3d_ws8tAXUa8t-47" value="" style="edgeStyle=orthogonalEdgeStyle;rounded=0;orthogonalLoop=1;jettySize=auto;html=1;" edge="1" parent="WIyWlLk6GJQsqaUBKTNV-1" source="EHwVneV3d_ws8tAXUa8t-44" target="EHwVneV3d_ws8tAXUa8t-46">
          <mxGeometry relative="1" as="geometry" />
        </mxCell>
        <mxCell id="EHwVneV3d_ws8tAXUa8t-44" value="Kuva kasutajale Muutujast &quot;üksRida&quot; sisu" style="shape=parallelogram;perimeter=parallelogramPerimeter;whiteSpace=wrap;html=1;fixedSize=1;" vertex="1" parent="WIyWlLk6GJQsqaUBKTNV-1">
          <mxGeometry x="120" y="1730" width="120" height="60" as="geometry" />
        </mxCell>
        <mxCell id="EHwVneV3d_ws8tAXUa8t-49" value="" style="edgeStyle=orthogonalEdgeStyle;rounded=0;orthogonalLoop=1;jettySize=auto;html=1;" edge="1" parent="WIyWlLk6GJQsqaUBKTNV-1" source="EHwVneV3d_ws8tAXUa8t-46" target="EHwVneV3d_ws8tAXUa8t-48">
          <mxGeometry relative="1" as="geometry" />
        </mxCell>
        <mxCell id="EHwVneV3d_ws8tAXUa8t-46" value="Muutuja tsükliMuutuja lahutab teisel pool oleva 1&lt;br&gt;-= 1" style="shape=parallelogram;perimeter=parallelogramPerimeter;whiteSpace=wrap;html=1;fixedSize=1;" vertex="1" parent="WIyWlLk6GJQsqaUBKTNV-1">
          <mxGeometry x="110" y="1830" width="140" height="60" as="geometry" />
        </mxCell>
        <mxCell id="EHwVneV3d_ws8tAXUa8t-51" value="" style="edgeStyle=orthogonalEdgeStyle;rounded=0;orthogonalLoop=1;jettySize=auto;html=1;" edge="1" parent="WIyWlLk6GJQsqaUBKTNV-1" source="EHwVneV3d_ws8tAXUa8t-48" target="EHwVneV3d_ws8tAXUa8t-50">
          <mxGeometry relative="1" as="geometry" />
        </mxCell>
        <mxCell id="EHwVneV3d_ws8tAXUa8t-48" value="Kuva kasutajale tekst &quot;Palun, siin on sinu ruut, suurusega {ruuduSuurus}x{reakujund}&quot;" style="shape=parallelogram;perimeter=parallelogramPerimeter;whiteSpace=wrap;html=1;fixedSize=1;" vertex="1" parent="WIyWlLk6GJQsqaUBKTNV-1">
          <mxGeometry x="90" y="1940" width="180" height="60" as="geometry" />
        </mxCell>
        <mxCell id="EHwVneV3d_ws8tAXUa8t-50" value="Lõpp" style="ellipse;whiteSpace=wrap;html=1;" vertex="1" parent="WIyWlLk6GJQsqaUBKTNV-1">
          <mxGeometry x="135" y="2070" width="90" height="60" as="geometry" />
        </mxCell>
        <mxCell id="EHwVneV3d_ws8tAXUa8t-58" value="" style="edgeStyle=orthogonalEdgeStyle;rounded=0;orthogonalLoop=1;jettySize=auto;html=1;" edge="1" parent="WIyWlLk6GJQsqaUBKTNV-1" source="EHwVneV3d_ws8tAXUa8t-55" target="EHwVneV3d_ws8tAXUa8t-18">
          <mxGeometry relative="1" as="geometry" />
        </mxCell>
        <mxCell id="EHwVneV3d_ws8tAXUa8t-55" value="Salvesta muutujasse kasutajaNimi sisestatud nimi" style="shape=parallelogram;perimeter=parallelogramPerimeter;whiteSpace=wrap;html=1;fixedSize=1;" vertex="1" parent="WIyWlLk6GJQsqaUBKTNV-1">
          <mxGeometry x="120" y="410" width="120" height="60" as="geometry" />
        </mxCell>
        <mxCell id="EHwVneV3d_ws8tAXUa8t-59" value="&lt;font style=&quot;font-size: 24px;&quot;&gt;Martin Kivistik&lt;br&gt;IKTpe25_1&lt;/font&gt;" style="text;html=1;align=center;verticalAlign=middle;resizable=0;points=[];autosize=1;strokeColor=none;fillColor=none;" vertex="1" parent="WIyWlLk6GJQsqaUBKTNV-1">
          <mxGeometry x="405" y="78" width="170" height="70" as="geometry" />
        </mxCell>
      </root>
    </mxGraphModel>
  </diagram>
</mxfile>
